<?xml version="1.0" standalone="no"?>
<!DOCTYPE svg PUBLIC "-//W3C//DTD SVG 20010904//EN"
 "http://www.w3.org/TR/2001/REC-SVG-20010904/DTD/svg10.dtd">
<svg version="1.0" xmlns="http://www.w3.org/2000/svg"
 width="735.000000pt" height="735.000000pt" viewBox="0 0 735.000000 735.000000"
 preserveAspectRatio="xMidYMid meet">
<metadata>
Created by potrace 1.14, written by Peter Selinger 2001-2017
</metadata>
<g transform="translate(0.000000,735.000000) scale(0.100000,-0.100000)"
fill="#000000" stroke="none">
<path d="M3653 7183 c31 -2 83 -2 115 0 31 2 5 3 -58 3 -63 0 -89 -1 -57 -3z"/>
<path d="M3535 7160 c25 -11 261 -11 295 0 15 5 -45 8 -145 8 -103 0 -162 -3
-150 -8z"/>
<path d="M4022 7115 c-7 -8 -9 -15 -4 -15 5 0 15 7 22 15 16 19 -1 19 -18 0z"/>
<path d="M3797 7080 c-95 -8 -126 -19 -56 -21 36 -1 30 -3 -29 -11 -84 -10
-126 -24 -117 -37 3 -6 -5 -15 -17 -22 -12 -7 -28 -18 -35 -25 -7 -7 -35 -16
-61 -19 -26 -4 -58 -10 -72 -14 -14 -4 -39 -7 -57 -5 -24 1 -32 -3 -37 -19 -7
-27 17 -44 74 -52 25 -4 56 -9 70 -11 14 -3 124 -5 245 -5 224 0 327 12 438
47 44 15 47 17 30 30 -10 7 -31 14 -48 14 -37 0 -50 9 -59 38 -7 21 -36 32
-36 13 0 -19 -43 3 -59 30 -16 28 -49 49 -78 49 -27 0 -6 13 34 20 l38 8 -40
-1 c-22 0 -79 -3 -128 -7z"/>
<path d="M4991 6339 c-77 -10 -211 -51 -265 -82 -52 -30 -66 -52 -44 -73 15
-16 24 -15 124 1 233 38 428 -11 558 -140 61 -62 82 -87 79 -97 -2 -5 1 -8 6
-8 6 0 24 -20 42 -45 60 -83 99 -40 64 69 -10 28 -18 58 -20 67 -2 9 -15 40
-30 69 -58 115 -180 207 -312 235 -74 16 -106 17 -202 4z"/>
<path d="M2450 6316 c-98 -27 -173 -84 -241 -183 -46 -67 -91 -181 -92 -238
-2 -45 0 -50 21 -53 24 -4 46 16 124 112 81 99 151 148 289 202 36 15 76 18
222 19 153 0 180 2 187 16 14 24 -23 54 -101 83 -139 52 -309 70 -409 42z"/>
<path d="M5860 6218 c0 -4 4 -8 9 -8 6 0 12 4 15 8 3 5 -1 9 -9 9 -8 0 -15 -4
-15 -9z"/>
<path d="M5853 6194 c17 -20 17 -23 1 -38 -9 -9 -14 -20 -10 -23 3 -4 6 -3 6
1 0 4 6 1 13 -6 12 -10 12 -15 0 -26 -7 -8 -11 -22 -8 -32 3 -9 -1 -23 -10
-30 -12 -10 -13 -16 -1 -39 15 -29 11 -55 -7 -45 -9 5 -8 3 0 -6 8 -9 9 -19 3
-30 -7 -13 -1 -26 25 -53 18 -19 37 -32 41 -29 5 4 2 -1 -5 -10 -14 -19 -26
-25 -16 -8 3 5 -4 19 -15 30 -20 20 -40 19 -40 -1 0 -6 4 -8 9 -5 5 4 5 -10 0
-31 -5 -26 -4 -40 4 -45 9 -6 8 -8 -2 -8 -8 0 -12 -3 -8 -6 3 -3 2 -17 -3 -30
-9 -23 -8 -24 11 -14 19 11 20 10 9 -10 -6 -12 -9 -24 -6 -27 3 -3 -2 -12 -12
-20 -9 -8 -12 -12 -6 -9 8 4 10 -8 6 -41 -4 -37 -2 -45 9 -39 10 5 10 4 -1 -6
-18 -16 -17 -84 3 -115 6 -9 3 -11 -7 -7 -14 5 -15 -12 -6 -61 1 -6 1 -14 0
-20 -6 -31 -4 -112 4 -108 4 3 5 -4 1 -16 -6 -19 -3 -21 20 -17 31 6 36 9 39
28 1 7 5 18 9 25 4 7 0 16 -10 22 -10 6 -13 11 -7 11 7 0 14 9 17 21 4 14 -1
23 -16 29 -21 8 -21 9 3 10 20 0 22 2 9 10 -11 6 -14 19 -11 39 2 17 7 29 11
27 3 -2 5 14 3 35 -3 29 -8 39 -18 35 -7 -3 -16 -1 -19 5 -4 5 -3 9 2 8 17 -3
33 1 32 9 -1 4 0 9 1 12 5 14 7 136 2 145 -3 5 -7 18 -7 27 -1 12 2 15 10 8 8
-7 12 -5 12 5 0 8 -4 15 -9 15 -5 0 -6 10 -3 21 4 13 3 19 -2 16 -5 -4 -10 0
-10 8 0 8 4 12 9 9 4 -3 8 3 9 13 1 10 2 30 3 46 2 15 -1 27 -6 27 -4 0 -8 7
-8 16 0 9 5 12 13 8 6 -4 3 3 -8 16 -11 13 -14 20 -7 16 15 -9 17 30 2 39 -8
5 -7 12 2 23 7 9 8 13 3 10 -6 -4 -17 -3 -25 3 -12 7 -11 9 5 10 11 1 22 1 25
1 11 -1 1 81 -10 88 -8 5 -9 10 -2 14 6 4 9 13 5 21 -3 9 0 21 6 29 9 10 8 15
-4 20 -11 4 -14 2 -9 -7 5 -8 2 -7 -9 2 -9 7 -17 10 -17 6 0 -4 -8 -1 -17 6
-16 12 -16 12 0 -7z m18 -497 c-10 -9 -11 -8 -5 6 3 10 9 15 12 12 3 -3 0 -11
-7 -18z m16 -54 c-4 -3 -3 -11 2 -17 5 -6 5 -20 0 -31 -7 -17 -8 -18 -10 -2
-1 9 -2 23 -3 30 -3 14 3 27 11 27 4 0 3 -3 0 -7z m-34 -38 c-3 -9 -8 -14 -10
-11 -3 3 -2 9 2 15 9 16 15 13 8 -4z m14 -130 c0 -8 -4 -12 -9 -9 -5 3 -6 10
-3 15 9 13 12 11 12 -6z m13 -35 c0 -5 -5 -10 -11 -10 -5 0 -7 5 -4 10 3 6 8
10 11 10 2 0 4 -4 4 -10z m-30 -36 c0 -8 -4 -12 -10 -9 -5 3 -10 10 -10 16 0
5 5 9 10 9 6 0 10 -7 10 -16z"/>
<path d="M2787 5719 c-9 -6 -17 -7 -17 -3 0 4 -7 -1 -16 -12 -8 -10 -12 -12
-8 -5 5 9 -5 6 -23 -7 -17 -12 -38 -22 -46 -22 -9 0 -25 -14 -37 -30 -12 -17
-26 -28 -31 -24 -5 3 -8 1 -7 -4 2 -5 -13 -31 -32 -58 -19 -27 -35 -51 -36
-54 0 -3 -3 -12 -7 -20 -7 -20 -33 -107 -43 -145 -4 -16 -6 -38 -5 -47 1 -10
-3 -18 -8 -18 -15 0 -14 -33 2 -49 10 -11 10 -14 0 -18 -7 -3 -13 -9 -13 -14
0 -6 4 -8 8 -5 10 6 9 -24 -1 -41 -4 -7 -5 -26 -2 -42 3 -20 1 -31 -7 -31 -6
0 -8 -3 -5 -6 4 -4 13 -2 20 4 11 9 13 8 12 -6 -3 -27 -16 -52 -24 -47 -4 2
-8 -3 -8 -11 0 -9 6 -13 14 -10 9 4 11 2 6 -7 -17 -28 -5 -36 121 -82 206 -74
592 -145 559 -102 -9 10 -11 91 -3 107 1 3 2 9 1 14 -1 5 3 43 10 85 12 82 16
254 6 311 -11 61 -47 159 -75 204 -30 47 -112 132 -124 128 -5 -1 -8 2 -8 6 0
13 -81 51 -115 54 -16 2 -32 6 -35 10 -3 3 -13 2 -23 -3z m41 -235 c50 -35 64
-100 36 -160 -39 -83 -162 -87 -203 -7 -16 31 -14 89 4 123 21 41 53 60 100
60 22 0 51 -7 63 -16z m262 -404 c-1 -22 -30 -83 -48 -98 -12 -11 -20 -21 -18
-23 2 -2 -2 -10 -10 -17 -8 -7 -14 -10 -14 -7 0 4 -12 -3 -26 -14 -19 -15 -41
-21 -76 -21 -27 0 -47 4 -44 9 3 5 -1 14 -9 21 -9 7 -14 26 -12 45 1 18 4 31
6 29 2 -2 11 4 20 14 16 19 124 75 150 79 9 1 17 7 19 13 4 10 62 -18 62 -30z
m-558 -38 c-3 -15 -1 -23 5 -19 6 4 14 -14 20 -42 9 -46 9 -48 -8 -38 -27 17
-48 124 -25 124 8 0 11 -9 8 -25z"/>
<path d="M4794 5708 c-3 -4 -10 -6 -15 -3 -5 4 -9 1 -9 -6 0 -8 -4 -8 -16 1
-8 8 -14 9 -12 4 4 -12 -65 -74 -81 -74 -6 0 -11 -7 -11 -15 0 -9 -10 -20 -22
-25 -13 -5 -17 -9 -8 -9 9 -1 4 -8 -13 -19 -15 -10 -24 -21 -21 -24 3 -4 -4
-11 -15 -18 -12 -6 -21 -20 -21 -30 0 -11 -4 -20 -8 -20 -5 0 -15 -12 -22 -27
-15 -31 -16 -37 -18 -71 -1 -13 -6 -20 -12 -17 -6 3 -7 -1 -4 -9 3 -9 3 -24
-1 -33 -5 -10 -8 -31 -8 -48 1 -16 -3 -34 -7 -40 -4 -5 -7 -28 -6 -50 1 -22
-3 -46 -9 -54 -7 -11 -7 -13 3 -7 6 4 12 3 12 -3 0 -5 -4 -13 -10 -16 -5 -3
-10 -11 -10 -16 0 -6 4 -8 9 -5 12 8 2 -34 -13 -54 -7 -10 -4 -10 10 2 19 16
20 16 20 -2 0 -11 -4 -20 -8 -20 -4 0 -8 -7 -8 -16 0 -8 4 -13 10 -9 5 3 3 -6
-5 -21 -9 -18 -11 -34 -5 -49 5 -14 5 -26 -2 -33 -5 -5 -12 -26 -15 -45 -4
-29 -1 -35 19 -40 47 -13 431 52 483 82 6 3 16 6 24 8 8 1 63 19 122 39 93 33
106 40 90 50 -17 12 -18 29 -7 99 7 43 8 236 1 265 -3 14 -8 38 -10 53 -2 16
-18 58 -36 95 -18 37 -33 69 -34 72 -9 26 -19 39 -26 34 -5 -3 -9 0 -9 7 0 17
-65 76 -79 71 -6 -2 -14 3 -17 12 -3 9 -10 14 -14 11 -5 -3 -15 2 -24 10 -17
17 -123 28 -132 13z m29 -239 c59 -46 58 -156 -2 -198 -74 -53 -161 -7 -161
85 0 108 91 171 163 113z m272 -370 c4 -10 1 -29 -6 -41 -7 -13 -12 -24 -11
-25 6 -9 -2 -22 -33 -58 -19 -22 -35 -43 -35 -47 0 -5 -7 -8 -15 -8 -7 0 -18
-7 -23 -16 -5 -9 -12 -15 -15 -15 -4 1 -15 1 -24 1 -15 0 -16 -2 -3 -10 12 -8
10 -10 -8 -10 -13 0 -20 4 -17 10 3 6 -1 10 -10 10 -9 0 -13 4 -10 10 3 5 0 8
-7 5 -18 -6 -51 41 -44 63 3 9 16 29 29 44 29 33 127 99 139 92 4 -3 8 0 8 5
0 6 9 11 21 11 11 0 17 5 14 10 -4 6 4 5 19 -1 14 -7 28 -20 31 -30z"/>
<path d="M6220 5666 c-36 -12 -88 -37 -116 -54 l-51 -32 -7 -227 c-3 -126 -11
-426 -17 -668 -5 -242 -14 -560 -19 -706 -6 -207 -5 -283 5 -342 7 -42 16 -80
19 -85 3 -6 -1 -27 -10 -47 -10 -24 -19 -95 -25 -199 -5 -88 -17 -195 -26
-236 -24 -110 -27 -227 -9 -300 12 -47 13 -66 5 -83 -15 -27 -115 -312 -143
-404 -11 -40 -25 -73 -29 -73 -5 0 -6 4 -2 9 3 5 1 12 -5 16 -7 4 -8 49 -4
130 6 117 5 124 -14 134 -11 6 -37 11 -57 11 -32 0 -35 2 -26 19 8 15 7 20 -5
25 -33 13 -78 4 -214 -39 -77 -25 -144 -45 -148 -44 -12 1 97 48 182 80 43 15
98 40 123 55 25 14 61 26 79 27 34 1 34 1 11 13 -13 7 -81 25 -151 40 -128 29
-142 42 -46 43 68 2 179 28 235 56 50 25 124 100 130 133 2 9 4 18 5 20 2 1 3
5 4 10 1 4 5 13 10 21 6 9 5 12 -2 7 -6 -3 -13 -2 -16 3 -4 5 -2 12 3 16 6 3
7 27 5 53 -6 51 -12 87 -14 87 -1 0 -3 17 -5 38 -2 21 -7 48 -11 59 -4 15 -3
18 6 13 9 -6 9 -3 2 12 -6 10 -7 25 -2 32 4 8 2 25 -6 39 -8 16 -10 30 -5 35
5 5 7 16 4 25 -4 9 -2 13 4 9 8 -5 10 21 3 43 -1 4 -2 162 0 183 0 5 4 6 8 3
5 -3 9 1 9 9 0 8 -4 12 -8 9 -4 -2 -7 4 -7 13 0 10 -2 30 -5 44 -3 15 1 39 9
54 16 32 19 59 4 50 -14 -9 -12 8 3 24 10 11 10 13 0 7 -9 -5 -13 1 -13 19 0
17 4 24 11 19 6 -3 3 5 -6 19 -17 27 -13 47 8 47 7 0 6 -4 -3 -11 -13 -9 -13
-10 0 -6 16 4 16 48 -1 78 -5 10 -4 20 3 27 9 9 8 12 -2 12 -13 0 -13 2 0 11
11 8 12 12 3 16 -15 5 -18 43 -4 43 10 0 7 52 -3 69 -4 6 -3 11 2 11 5 0 9 14
9 30 0 17 -5 30 -11 30 -6 0 -4 5 4 10 8 5 10 10 3 10 -12 0 -12 24 0 36 3 4
1 16 -5 28 -11 20 -10 20 8 6 18 -15 18 -14 0 14 -11 18 -13 25 -5 20 11 -6
12 -5 3 7 -12 15 -15 49 -5 49 3 0 7 37 8 83 2 61 0 78 -8 67 -9 -12 -10 -12
-5 3 3 10 6 21 6 23 0 3 4 3 9 -1 6 -3 7 6 2 22 -4 16 -6 43 -4 62 2 22 -3 41
-14 53 -16 18 -16 18 3 12 10 -4 16 -4 13 0 -4 4 -3 23 1 42 5 20 4 37 -2 40
-5 3 -6 13 -3 23 4 9 8 24 10 34 4 16 2 17 -12 5 -15 -12 -15 -11 -4 10 6 12
9 28 5 34 -4 7 -3 8 4 4 8 -5 12 1 12 14 0 12 -4 19 -9 15 -5 -3 -12 -1 -16 5
-3 5 -1 10 5 10 7 0 10 6 7 14 -3 7 1 22 8 33 12 17 12 20 0 20 -8 0 -12 -4
-9 -8 2 -4 1 -10 -4 -13 -12 -7 -13 36 -1 51 6 6 8 17 4 23 -3 5 -3 10 2 10 4
0 9 11 9 25 1 16 -3 25 -13 25 -8 0 -11 5 -8 10 4 6 12 7 18 3 8 -4 7 -1 -1 9
-27 33 -69 4 -67 -47 0 -19 -4 -35 -10 -35 -5 0 -3 -6 5 -13 17 -13 28 -63 12
-53 -14 9 -22 -30 -8 -45 7 -8 7 -10 0 -6 -12 7 -13 -31 0 -51 4 -7 3 -11 -2
-10 -11 3 -12 -9 -4 -30 2 -7 2 -15 -1 -18 -3 -4 -1 -17 4 -31 7 -20 6 -24 -4
-20 -17 6 -15 -29 2 -62 10 -17 9 -21 -4 -21 -10 0 -13 5 -9 12 5 7 3 8 -5 3
-9 -5 -10 -10 -2 -18 14 -14 14 -57 1 -57 -6 0 -4 -10 4 -23 14 -20 14 -26 1
-50 -12 -24 -12 -29 1 -34 11 -4 12 -9 3 -19 -6 -8 -9 -21 -5 -29 3 -10 -1
-15 -12 -15 -12 0 -13 -3 -5 -8 17 -11 23 -54 9 -71 -8 -11 -8 -13 2 -7 13 8
13 -19 -1 -41 -5 -8 -3 -13 3 -13 8 0 8 -6 0 -20 -8 -15 -8 -20 2 -20 9 0 9
-3 -2 -10 -9 -6 -10 -10 -3 -10 8 0 9 -9 4 -28 -5 -16 -8 -45 -6 -65 1 -20 -1
-34 -5 -32 -5 3 -4 -11 0 -30 5 -21 4 -38 -2 -41 -5 -3 -4 -11 2 -19 7 -8 8
-20 4 -26 -4 -8 -3 -9 4 -5 7 4 12 3 12 -3 0 -5 -4 -12 -8 -15 -5 -3 -8 -19
-7 -36 1 -16 -1 -30 -5 -30 -4 0 -7 -7 -7 -15 0 -8 6 -15 13 -15 7 0 15 -4 18
-9 3 -5 -2 -8 -12 -7 -11 0 -16 -5 -13 -14 2 -8 3 -35 3 -60 -6 -168 -6 -185
4 -183 6 1 11 -4 11 -11 0 -7 -6 -13 -13 -13 -7 0 -11 3 -9 7 2 4 -2 7 -10 7
-13 0 -13 -3 -1 -16 7 -9 12 -26 10 -38 -2 -12 -4 -26 -5 -30 -1 -4 -1 -17 0
-28 1 -17 3 -18 12 -5 9 12 10 12 5 -3 -3 -10 -6 -21 -6 -23 0 -3 -4 -3 -9 0
-11 7 -9 -13 2 -31 7 -12 3 -16 -13 -15 -4 0 -6 -10 -6 -23 0 -13 3 -22 6 -20
3 2 11 -4 17 -14 9 -14 8 -18 -3 -18 -7 0 -10 5 -7 11 3 6 2 7 -2 3 -17 -15
-14 -36 3 -29 15 5 15 4 3 -11 -7 -9 -11 -24 -7 -32 3 -9 2 -14 -3 -11 -5 3
-11 -3 -14 -14 -3 -11 0 -23 5 -27 7 -4 8 -1 3 7 -6 9 -4 11 4 5 9 -5 10 -10
2 -18 -15 -15 -14 -67 2 -67 8 0 9 -2 1 -8 -14 -8 -35 -78 -26 -86 3 -3 -2 -6
-12 -6 -9 0 -14 -4 -11 -10 3 -5 1 -10 -5 -10 -6 0 -9 -3 -6 -8 2 -4 -2 -16
-10 -27 -8 -10 -14 -15 -14 -11 0 5 -6 3 -14 -4 -8 -6 -12 -19 -9 -28 4 -13 2
-12 -11 3 -10 11 -15 14 -11 8 3 -8 0 -13 -8 -13 -8 0 -22 -9 -32 -20 -11 -12
-22 -17 -29 -11 -6 4 -23 8 -38 7 -16 -1 -28 3 -28 9 0 6 -3 6 -8 -1 -4 -6
-24 -11 -44 -10 -20 1 -35 -1 -33 -5 3 -3 -10 -5 -28 -3 -17 1 -32 3 -32 4 0
1 -26 2 -57 4 -32 2 -58 0 -58 -3 0 -8 -68 -6 -76 2 -4 4 -15 2 -25 -4 -13 -7
-19 -6 -19 1 0 7 -6 8 -16 2 -9 -5 -32 -6 -50 -2 -19 5 -34 4 -34 -1 0 -5 -5
-9 -11 -9 -5 0 -7 6 -3 13 5 7 0 6 -11 -3 -11 -9 -16 -10 -11 -2 4 6 2 12 -3
12 -6 0 -11 -4 -11 -10 0 -5 -5 -10 -11 -10 -5 0 -7 5 -3 12 5 7 3 8 -6 3 -18
-11 -90 -12 -90 -1 0 6 -5 5 -12 -2 -19 -19 -32 -14 -17 6 11 14 10 13 -9 -2
-13 -12 -22 -14 -22 -7 0 7 -5 9 -10 6 -20 -12 -85 -13 -99 -1 -12 9 -13 8 -6
-4 7 -12 6 -13 -7 -3 -8 7 -18 10 -21 7 -11 -11 -107 -11 -107 0 0 6 -5 4 -10
-4 -8 -13 -10 -13 -10 0 0 10 -3 11 -11 3 -8 -8 -20 -8 -41 -1 -17 6 -33 7
-37 2 -10 -15 -66 -9 -63 6 3 11 0 11 -12 1 -9 -8 -27 -11 -41 -9 -14 3 -28 1
-31 -4 -4 -6 -10 -5 -15 3 -7 11 -9 11 -9 -1 0 -13 -1 -13 -10 0 -8 12 -10 12
-10 1 0 -11 -3 -11 -15 -1 -8 7 -15 9 -15 4 0 -8 -155 -11 -170 -4 -3 1 -9 2
-15 0 -42 -8 -145 -7 -145 1 0 6 -4 7 -10 4 -18 -11 -79 -15 -104 -5 -19 7
-26 5 -30 -6 -3 -9 -11 -12 -18 -8 -16 10 -119 11 -125 1 -2 -4 -9 -5 -14 -1
-15 9 -256 12 -309 4 -25 -3 -58 -3 -72 1 -17 4 -29 3 -32 -4 -3 -8 -5 -8 -5
1 -1 10 -6 10 -22 1 -16 -8 -20 -8 -14 1 6 9 3 9 -12 2 -11 -7 -25 -7 -35 -1
-11 6 -19 5 -23 -1 -5 -8 -12 -7 -23 2 -9 7 -13 8 -10 3 4 -6 -9 -10 -32 -10
-21 0 -36 3 -34 7 2 3 -1 10 -7 14 -7 4 -9 3 -5 -4 9 -15 -14 -20 -46 -11 -16
4 -28 5 -28 1 0 -9 -210 -7 -235 2 -14 6 -16 5 -7 -2 11 -7 9 -10 -7 -15 -13
-3 -19 -1 -15 5 5 7 -2 9 -19 6 -15 -3 -24 -1 -21 3 3 5 0 9 -5 9 -6 0 -11 -7
-11 -15 0 -11 -5 -12 -23 -6 -14 5 -30 5 -40 0 -11 -7 -17 -6 -17 0 0 5 -10 7
-23 4 -40 -9 -77 -4 -89 12 -5 6 -8 3 -8 -7 0 -15 -4 -16 -27 -7 -16 6 -28 11
-29 12 0 1 -7 -3 -15 -9 -8 -6 -45 -12 -84 -12 -38 -1 -81 -4 -95 -7 -23 -6
-54 -12 -73 -14 -5 -1 -5 -5 -2 -11 3 -6 -1 -7 -9 -4 -9 3 -16 1 -16 -5 0 -6
-3 -10 -7 -10 -21 3 -32 -2 -27 -15 3 -7 -2 -16 -11 -20 -11 -4 -14 -2 -10 7
4 6 1 5 -7 -3 -21 -24 -77 -52 -90 -44 -7 4 -8 3 -4 -4 7 -12 1 -13 -61 -14
-25 -1 -53 7 -77 20 -5 3 2 -9 15 -27 46 -62 185 -110 360 -125 30 -2 61 -7
69 -10 8 -3 33 -13 55 -21 33 -12 35 -14 10 -10 -16 2 -73 10 -126 16 l-95 11
-175 -56 c-96 -31 -193 -67 -215 -81 -70 -42 -74 -61 -72 -317 1 -160 3 -196
8 -128 l5 95 5 -98 c3 -61 1 -97 -5 -97 -5 0 -41 29 -79 65 -62 59 -71 72
-101 156 l-33 91 24 55 c55 125 70 269 55 523 -11 190 -31 312 -63 397 -17 47
-19 62 -9 116 18 107 22 265 13 482 l-9 210 32 40 c73 91 103 186 113 352 6
104 9 118 25 117 16 -2 17 14 17 201 0 193 -1 204 -19 210 -15 5 -21 18 -26
63 -16 159 -65 278 -146 358 -27 26 -49 44 -49 39 0 -5 -7 0 -16 11 -14 18
-15 18 -4 -5 16 -33 24 -128 11 -136 -17 -10 -13 -100 8 -157 32 -88 42 -202
42 -490 0 -265 -1 -277 -25 -354 -36 -114 -71 -146 -207 -190 -12 -4 -18 3
-24 28 -4 18 -7 36 -6 40 0 4 -11 3 -25 -2 -43 -17 -46 -11 -17 25 15 19 36
35 45 35 21 0 72 61 85 104 25 83 -17 136 -115 144 -39 3 -53 1 -48 -6 4 -7
-3 -14 -18 -18 -13 -3 -32 -14 -41 -24 -15 -16 -14 -17 9 -15 l25 3 -21 -41
c-18 -35 -22 -39 -28 -23 -17 51 -76 -156 -85 -304 -7 -113 -7 -505 0 -567 2
-21 7 -67 10 -103 7 -78 13 -129 20 -193 5 -38 2 -51 -15 -69 -18 -20 -20 -35
-20 -182 0 -186 18 -388 40 -461 5 -16 11 -41 12 -55 2 -14 6 -29 9 -35 10
-18 10 -171 1 -156 -7 9 -11 10 -17 2 -4 -7 13 -31 40 -59 41 -40 52 -60 77
-142 52 -168 57 -184 68 -255 6 -38 13 -71 14 -73 2 -1 7 13 10 33 5 22 21 49
46 73 l39 37 -34 130 c-19 72 -35 137 -35 146 0 9 10 20 22 23 51 13 52 15 9
157 -22 74 -42 146 -45 161 -6 26 -19 30 -43 15 -9 -5 -13 -2 -13 8 0 29 20
55 42 55 18 0 19 -2 7 -16 -12 -15 -11 -16 11 -9 14 4 27 7 30 8 5 0 82 -33
87 -37 2 -2 27 -99 57 -217 30 -118 61 -232 69 -255 9 -23 23 -78 32 -122 17
-86 9 -148 -23 -174 -21 -18 -52 24 -52 72 0 47 -18 100 -34 100 -7 0 -23 -11
-36 -25 -13 -14 -20 -25 -15 -25 5 0 1 -6 -8 -13 -37 -28 -22 -106 29 -154 13
-12 24 -26 24 -31 0 -5 43 -49 95 -97 70 -66 93 -94 91 -109 -2 -12 -8 -20
-12 -19 -5 1 -10 -10 -11 -23 -4 -46 -6 -53 -15 -48 -5 3 -5 10 -2 16 4 6 -1
6 -14 -1 -25 -13 -45 -7 -97 32 l-40 29 40 -36 c30 -27 39 -41 37 -61 -5 -38
35 -100 99 -149 69 -54 122 -72 141 -48 8 10 9 13 1 9 -6 -4 -13 -4 -15 1 -1
4 -23 22 -46 41 -76 59 -77 101 -4 93 39 -4 53 -12 83 -46 l37 -41 18 33 c37
66 105 152 119 152 19 0 19 -4 -1 -43 l-17 -32 26 23 c30 28 36 21 32 -38 -5
-76 -138 -280 -205 -315 -38 -20 -98 -26 -125 -13 -14 7 -13 3 5 -11 14 -12
42 -26 63 -33 26 -8 39 -19 43 -35 4 -13 18 -32 31 -43 14 -11 22 -20 17 -20
-5 -1 8 -10 29 -21 20 -11 37 -22 37 -25 0 -3 -6 -2 -12 2 -7 4 -10 4 -6 -1 4
-4 26 -9 48 -11 23 -2 83 -16 133 -31 71 -20 125 -27 233 -32 118 -6 145 -10
175 -28 119 -74 271 -132 452 -173 98 -23 174 -24 335 -4 l53 7 50 -53 c52
-56 69 -97 69 -172 0 -39 -5 -50 -27 -68 -19 -15 -35 -19 -57 -15 -17 3 -42 8
-56 10 -14 3 -50 14 -80 25 -30 11 -62 20 -71 20 -9 0 -30 7 -47 16 -17 8 -48
18 -69 21 -21 3 -54 14 -73 23 -20 10 -49 20 -65 23 -17 3 -54 15 -83 26 -29
12 -59 21 -68 21 -8 0 -35 9 -58 20 -24 11 -58 21 -75 22 -17 1 -31 5 -31 9 0
10 -29 20 -70 25 -61 7 -94 16 -115 30 -11 8 -30 14 -42 14 -13 0 -23 5 -23
12 0 6 -3 8 -7 5 -3 -4 -12 -2 -20 4 -7 6 -13 8 -13 4 0 -4 -7 -2 -15 5 -8 6
-20 8 -27 4 -7 -4 -10 -3 -5 1 8 10 -82 57 -95 49 -4 -3 -8 0 -8 6 0 6 -4 9
-9 6 -4 -3 -26 10 -47 29 -21 19 -42 35 -46 35 -5 0 -10 0 -13 0 -3 -1 -12 5
-20 12 -39 35 -45 39 -45 27 0 -8 -5 -7 -17 2 -11 10 -14 10 -9 2 4 -7 2 -13
-3 -13 -6 0 -11 6 -11 14 0 8 -6 16 -13 19 -18 7 -45 -15 -39 -31 2 -7 -2 -12
-9 -11 -18 4 -59 -22 -59 -37 0 -7 15 -25 33 -41 34 -30 97 -56 227 -93 41
-12 125 -37 185 -55 61 -18 227 -68 370 -110 143 -42 348 -103 457 -136 263
-79 377 -109 414 -109 46 0 161 33 234 68 147 69 267 122 278 122 6 0 26 -9
44 -19 18 -11 137 -50 263 -87 245 -71 342 -86 411 -64 50 15 350 149 614 272
98 47 267 123 392 179 264 117 278 132 278 317 l0 118 30 29 c17 16 30 34 30
41 0 6 6 17 14 23 8 6 16 21 19 32 4 16 -3 12 -34 -16 -44 -40 -46 -40 -46
-21 0 8 3 15 6 14 34 -3 54 30 70 115 7 40 22 73 50 111 22 29 37 56 34 60 -4
3 -2 6 4 6 6 0 23 17 39 37 15 20 22 33 16 29 -8 -5 -10 -2 -6 8 3 9 10 14 14
11 5 -3 7 3 5 12 -1 10 2 24 8 31 8 10 7 16 -4 23 -8 5 -9 9 -3 9 6 0 30 41
53 90 39 85 42 96 38 160 -2 41 -11 79 -21 94 -18 28 -22 76 -6 76 15 0 46
-34 67 -72 11 -22 17 -53 16 -94 -1 -54 -8 -75 -55 -168 l-55 -106 39 0 c69 0
116 35 123 91 2 19 9 54 15 79 6 25 24 120 40 212 16 92 31 171 34 176 10 16
57 246 65 319 7 56 15 79 35 104 97 115 147 362 148 729 0 214 -13 289 -69
388 -19 35 -32 66 -29 70 12 12 62 -36 88 -86 l26 -51 7 42 c11 67 14 554 4
637 -11 91 -49 205 -96 284 -18 32 -32 60 -30 62 1 2 17 -5 34 -16 43 -26 83
-98 109 -195 19 -71 22 -77 28 -50 4 17 12 38 17 48 46 84 60 214 62 567 2
258 0 301 -15 345 -32 91 -137 243 -159 230 -5 -4 -8 -1 -7 6 2 7 -1 13 -7 14
-5 0 -15 4 -22 8 -6 4 -37 8 -69 9 -58 3 -59 2 -75 -31 -17 -35 -68 -70 -106
-71 -19 0 -83 62 -83 81 0 11 49 28 116 41 l67 12 -34 12 c-19 7 -29 13 -23
13 7 1 14 8 18 16 8 22 -37 19 -114 -9z m-45 -76 c3 -5 -3 -10 -14 -10 -12 0
-21 5 -21 10 0 6 6 10 14 10 8 0 18 -4 21 -10z m269 -320 c36 -43 40 -93 27
-333 -13 -255 -14 -261 -50 -250 -34 10 -138 10 -175 0 l-28 -8 5 233 c3 144
9 248 17 273 7 22 29 57 50 77 32 33 44 38 83 38 38 0 49 -5 71 -30z m-619
-669 c-3 -6 -11 -11 -16 -11 -5 0 -4 6 3 14 14 16 24 13 13 -3z m611 -797 c-5
-19 -9 -20 -55 -11 -62 13 -158 -5 -164 -31 -4 -20 -15 146 -20 303 l-3 110
80 -3 c45 -2 99 1 121 5 l40 9 3 -181 c1 -99 0 -189 -2 -201z m-5240 181 c6
-2 14 -41 17 -88 4 -46 14 -103 22 -127 20 -56 21 -200 1 -200 -7 0 -20 -7
-27 -16 -12 -14 -14 -14 -20 3 -7 16 -8 15 -8 -4 -1 -26 -13 -28 -59 -12 -23
8 -42 7 -82 -5 -29 -9 -59 -21 -67 -27 -7 -7 -16 -10 -18 -7 -3 3 -8 115 -12
249 l-6 244 124 -3 c68 -2 129 -5 135 -7z m4684 -1 c0 -8 -19 -13 -24 -6 -3 5
1 9 9 9 8 0 15 -2 15 -3z m-73 -349 c0 -8 -4 -12 -9 -9 -5 3 -6 10 -3 15 9 13
12 11 12 -6z m-4572 -216 c6 -18 6 -35 2 -99 0 -14 2 -36 6 -50 4 -15 1 -12
-8 8 -9 20 -20 30 -27 26 -6 -4 -8 -3 -5 3 4 6 -3 14 -16 17 -12 3 -45 28 -73
55 -35 33 -55 46 -62 39 -6 -6 -15 -7 -22 -3 -14 9 6 35 26 35 8 0 14 5 14 11
0 17 25 37 51 41 27 4 104 -52 114 -83z m5073 -126 c37 2 75 8 85 12 17 7 18
2 12 -91 -15 -223 -54 -424 -81 -424 -8 0 -14 5 -14 12 0 6 -3 9 -6 6 -7 -8
-42 25 -37 34 2 4 -12 18 -31 30 -41 26 -46 45 -13 51 19 4 19 4 -5 6 -15 0
-39 -4 -54 -9 -48 -19 -49 -5 -19 230 8 58 18 118 24 132 10 25 12 26 41 16
18 -6 61 -8 98 -5z m-5041 -115 c-3 -7 -5 -2 -5 12 0 14 2 19 5 13 2 -7 2 -19
0 -25z m27 -105 c3 -21 10 -65 16 -98 6 -33 13 -125 17 -205 5 -128 4 -147
-11 -159 -14 -12 -19 -11 -36 4 -11 10 -20 28 -20 39 0 12 -5 28 -10 36 -7 11
-10 -2 -10 -42 0 -32 -2 -58 -5 -58 -3 0 -24 9 -47 21 -76 39 -148 9 -183 -74
-12 -29 -13 -26 -29 59 -9 49 -19 169 -23 266 l-6 177 70 -6 c84 -7 133 7 167
48 l25 29 6 -32 c3 -18 9 -60 14 -93 5 -33 9 -50 10 -37 0 13 5 21 10 18 10
-6 21 63 22 143 1 45 2 51 9 29 4 -15 11 -45 14 -65z m4926 -257 c0 -2 -3 -11
-6 -20 -9 -23 -24 -20 -24 4 0 11 7 20 15 20 8 0 15 -2 15 -4z m-1120 -106 c0
-10 -6 -12 -32 -14 -7 0 -49 -13 -92 -28 -111 -40 -106 -28 6 15 102 38 118
42 118 27z m-2803 -66 c-3 -3 -12 -4 -19 -1 -8 3 -5 6 6 6 11 1 17 -2 13 -5z
m-367 -139 c340 -97 625 -153 880 -171 30 -2 129 -11 220 -20 91 -8 217 -17
280 -20 63 -2 148 -8 188 -14 41 -6 78 -8 83 -5 13 9 69 -24 69 -40 0 -16 -33
-39 -70 -50 -36 -10 -160 -67 -160 -74 0 -3 4 -12 9 -20 9 -14 45 -10 116 13
11 4 -7 -7 -41 -23 -93 -44 -99 -45 -114 -16 -18 34 -26 32 -50 -14 -21 -41
-40 -197 -40 -326 0 -66 -20 -197 -36 -240 -12 -30 -46 -54 -79 -56 -24 -1 52
-19 265 -62 8 -2 28 -9 43 -15 15 -6 38 -11 50 -10 12 1 40 -4 61 -10 22 -6
42 -9 45 -7 2 3 -1 5 -7 5 -7 0 -12 7 -12 15 0 8 -3 14 -7 13 -12 -2 -46 14
-60 28 -10 9 -10 14 0 22 21 17 87 34 109 29 11 -3 17 -3 14 0 -9 9 63 61 95
68 42 9 92 -1 123 -26 14 -11 30 -18 35 -15 5 3 19 -2 32 -12 13 -10 53 -29
89 -41 36 -12 80 -29 98 -37 40 -19 215 -84 222 -84 3 1 -12 10 -33 21 -22 11
-37 23 -34 26 6 5 157 -68 187 -90 8 -6 12 -7 7 -2 -10 12 42 45 61 37 8 -3
13 -1 10 4 -4 5 8 10 25 11 56 3 99 13 113 24 8 6 14 9 14 6 0 -3 16 1 35 9
19 8 35 12 35 9 0 -2 17 4 38 14 94 47 159 66 267 78 86 9 172 -52 179 -128 2
-19 2 -27 -1 -19 -6 24 -136 42 -215 29 -35 -5 -71 -15 -82 -20 -10 -6 -27
-12 -39 -15 -33 -6 -91 -26 -102 -35 -6 -4 -16 -4 -23 0 -9 5 3 14 35 26 26
10 50 21 53 25 3 4 32 17 65 30 98 37 104 40 60 33 -22 -3 -37 -3 -34 1 4 4
35 11 70 16 l64 8 -68 -1 c-74 -2 -92 9 -24 16 25 3 19 3 -16 2 -32 -1 -62 -6
-65 -11 -4 -5 -23 -15 -42 -21 -19 -6 -73 -25 -120 -42 -47 -16 -101 -32 -120
-35 -19 -2 -54 -12 -77 -20 -23 -9 -49 -13 -57 -10 -8 3 -17 1 -21 -5 -9 -16
23 -14 86 6 30 9 61 18 69 19 8 2 31 6 50 9 19 3 57 13 83 22 27 8 51 13 54
10 3 -3 -15 -11 -38 -17 -64 -17 -172 -61 -184 -75 -18 -22 -76 -27 -104 -9
-14 9 2 -9 36 -40 60 -55 92 -113 77 -138 -7 -11 -37 18 -46 44 -7 18 -170
134 -238 168 -88 45 -315 128 -326 119 -6 -5 -15 -5 -19 -1 -5 4 -5 2 -1 -5 3
-6 15 -12 26 -12 11 -1 30 -1 41 -2 12 0 19 -3 15 -6 -9 -10 15 -34 27 -26 6
3 7 1 3 -5 -8 -13 -39 -16 -50 -5 -3 4 -22 8 -41 10 -20 1 -41 7 -48 13 -6 5
-23 19 -37 30 -23 18 -23 19 -5 20 11 0 26 -4 34 -9 9 -6 19 -5 26 2 18 16 -2
28 -35 21 -20 -4 -22 -3 -10 5 13 9 12 11 -5 12 -92 6 -128 -2 -203 -47 -30
-19 -64 -36 -74 -40 -44 -14 -7 -44 73 -59 13 -3 38 -8 54 -11 42 -8 105 -67
105 -98 0 -11 -39 -6 -52 7 -22 22 -117 85 -138 92 -22 7 -49 -13 -42 -33 2
-7 7 -10 10 -8 4 2 8 -7 8 -20 2 -19 -3 -24 -25 -25 -14 0 -35 -2 -46 -4 -11
-2 -58 2 -105 10 -47 8 -103 17 -125 21 -99 15 -295 55 -340 68 -27 9 -77 32
-110 52 -33 20 -66 37 -74 37 -9 0 -4 9 12 23 27 23 104 44 163 44 l35 0 -26
35 c-15 19 -52 47 -83 62 -50 24 -69 28 -147 28 -75 0 -101 -4 -157 -28 -36
-15 -77 -27 -90 -27 -14 -1 5 -13 49 -31 44 -19 70 -35 66 -42 -4 -7 0 -8 13
-3 10 4 15 4 12 1 -7 -8 37 -49 97 -90 22 -15 30 -24 19 -21 -20 6 -21 3 -17
-31 8 -61 8 -66 0 -106 -5 -24 -13 -37 -20 -34 -9 3 -11 -7 -9 -34 4 -41 -7
-50 -28 -24 -11 13 -7 19 11 17 3 -1 4 10 1 23 -2 14 -9 22 -15 18 -6 -4 -8 2
-4 17 4 16 -2 29 -21 47 -26 24 -197 113 -217 113 -32 0 -235 97 -320 152 -55
36 -109 69 -119 75 -18 10 -18 12 8 28 15 10 50 20 77 23 55 5 164 -14 182
-33 7 -6 18 -10 25 -7 6 2 12 -2 12 -8 0 -7 6 -10 14 -7 7 3 18 1 24 -5 6 -6
24 -12 41 -14 28 -3 31 -1 27 19 -3 12 -8 45 -11 72 -7 54 -26 105 -53 145 -9
14 -17 28 -17 32 0 13 -71 71 -104 85 -44 19 -111 19 -147 0 -42 -22 -69 -55
-103 -122 -20 -39 -42 -66 -62 -78 -20 -11 -29 -22 -25 -32 4 -10 -1 -15 -17
-15 -21 -1 -22 -1 -3 -15 11 -8 15 -15 9 -15 -5 0 -18 10 -29 22 -10 12 -13
18 -6 14 11 -7 -14 36 -55 94 -10 13 -21 36 -25 50 -7 24 -7 24 9 5 14 -18 15
-18 9 -2 -3 10 -6 23 -6 28 0 6 -4 7 -10 4 -5 -3 -10 0 -10 7 0 8 -22 37 -48
66 -27 29 -46 54 -44 57 3 3 0 5 -6 5 -7 0 -12 15 -12 34 0 19 -5 36 -10 38
-6 2 -12 14 -13 26 -2 35 -31 54 -81 55 -54 1 -51 -10 -35 152 15 149 17 205
8 199 -4 -2 -10 -1 -13 4 -3 5 11 24 31 42 61 58 124 58 313 5z m4234 -19 c48
-20 48 -20 44 -60 -8 -65 -62 -306 -69 -306 -13 0 -41 93 -37 126 4 30 1 34
-19 34 -27 0 -46 -27 -73 -101 l-19 -54 1 43 c0 23 4 45 9 47 4 3 6 13 3 23
-5 15 -4 15 6 2 9 -12 11 -10 6 11 -4 18 -1 29 8 32 8 3 17 21 21 39 5 28 35
132 50 176 3 8 8 12 13 10 4 -2 29 -12 56 -22z m-164 7 c0 -9 -38 -127 -60
-188 -17 -45 -19 -47 -19 -19 -1 51 52 214 70 214 5 0 9 -3 9 -7z m-585 -33
c-3 -5 24 -10 67 -12 41 -2 72 -7 72 -13 -1 -11 -83 -73 -97 -74 -5 -1 -34
-13 -65 -27 -109 -50 -169 -75 -179 -75 -1 0 -22 -11 -45 -25 -24 -13 -54 -29
-68 -35 -14 -6 -33 -15 -42 -20 -10 -5 -23 -9 -29 -9 -6 0 -23 -9 -39 -20 -15
-11 -30 -17 -33 -13 -4 3 -12 1 -19 -4 -7 -5 -35 -18 -63 -28 -27 -10 -55 -25
-61 -33 -7 -9 -18 -13 -28 -9 -10 4 -15 3 -11 -3 6 -9 -10 -14 -42 -13 -7 1
-10 -3 -7 -8 5 -8 -25 -14 -55 -10 -7 2 -11 -2 -8 -7 3 -4 -8 -6 -25 -4 -18 3
-33 0 -38 -8 -5 -9 -13 -9 -27 -1 -11 5 -23 8 -26 5 -3 -3 -13 8 -23 25 -22
37 -24 37 -46 7 -18 -25 -32 -134 -43 -336 -4 -74 -14 -135 -26 -170 -11 -30
-21 -59 -22 -65 -2 -5 -9 -27 -17 -47 -13 -35 -17 -38 -51 -38 -39 0 -93 22
-82 33 3 4 1 7 -6 7 -22 0 -72 48 -95 93 -13 23 -23 44 -24 47 0 3 -6 19 -13
35 -7 17 -14 39 -16 49 -2 11 -7 24 -12 30 -5 6 -18 38 -30 70 -12 33 -47 107
-78 165 -80 150 -131 253 -137 277 -10 32 27 69 91 92 52 20 74 21 223 17 91
-2 190 0 220 5 30 5 102 11 160 14 58 2 128 9 155 16 28 6 102 12 166 13 64 1
115 5 112 10 -5 9 11 9 21 0 4 -4 27 -9 51 -10 43 -3 76 7 315 93 74 26 84 28
75 14z m484 -262 c-5 -18 -9 -48 -9 -65 0 -18 -4 -33 -10 -33 -5 0 -11 -15
-11 -32 -1 -18 -3 -25 -6 -16 -8 30 26 178 41 178 3 0 0 -15 -5 -32z m188
-330 c-3 -8 -6 -5 -6 6 -1 11 2 17 5 13 3 -3 4 -12 1 -19z m33 -65 c-11 -17
-11 -17 -6 0 3 10 7 26 7 35 1 15 2 15 6 0 2 -10 -1 -25 -7 -35z m-4475 -43
c4 -6 12 -7 18 -4 7 4 9 4 5 -1 -4 -4 59 -45 139 -91 162 -93 208 -131 223
-184 18 -66 1 -178 -27 -173 -7 2 -5 -9 5 -27 12 -21 14 -32 6 -40 -8 -8 -17
6 -34 52 -13 35 -30 72 -39 82 -19 23 -132 106 -143 106 -5 0 -18 8 -29 19
-11 10 -41 29 -67 42 -101 51 -154 94 -167 137 -10 34 37 92 75 92 16 0 32 -5
35 -10z m250 -100 c10 -11 16 -20 13 -20 -3 0 -13 9 -23 20 -10 11 -16 20 -13
20 3 0 13 -9 23 -20z m3495 -22 c0 -6 -7 -7 -16 -4 -9 3 -20 6 -25 6 -6 0 -8
4 -5 9 8 12 46 2 46 -11z m280 -44 c7 -7 10 -20 7 -28 -7 -18 -109 -95 -169
-129 -43 -24 -47 -24 -35 -7 6 12 38 39 70 61 52 37 70 59 49 59 -22 0 -106
-30 -112 -41 -5 -7 -16 -8 -31 -4 -23 7 -23 8 7 24 55 30 166 77 184 78 10 1
24 -5 30 -13z m-265 -24 c-3 -5 -12 -10 -18 -10 -7 0 -6 4 3 10 19 12 23 12
15 0z m-25 -107 c0 -13 -48 -68 -53 -63 -10 10 22 70 38 70 8 0 15 -3 15 -7z
m-430 -119 c-25 -7 -52 -13 -60 -13 -21 1 60 27 85 27 11 0 0 -6 -25 -14z
m-2373 -132 c-5 -24 -3 -28 15 -28 42 2 41 -84 -1 -168 -78 -154 -143 -203
-257 -193 -76 7 -228 67 -289 113 -56 43 -64 72 -35 119 l22 35 29 -24 c26
-22 206 -86 243 -86 8 0 26 -5 39 -11 45 -20 81 10 127 105 39 81 94 166 106
166 4 0 4 -13 1 -28z m3213 -96 c0 -2 -7 -7 -16 -10 -8 -3 -12 -2 -9 4 6 10
25 14 25 6z m-683 -168 c7 -103 -12 -174 -47 -174 -11 0 -20 1 -20 3 0 1 7 22
15 46 15 43 21 101 25 207 1 48 3 52 11 30 6 -14 13 -64 16 -112z m373 83
c-26 -16 -223 -82 -233 -78 -10 3 209 84 233 85 13 1 13 0 0 -7z m-1895 -81
c18 -34 16 -47 -6 -71 -9 -9 -21 -23 -25 -31 -24 -38 -175 -120 -253 -137
-117 -25 -299 -1 -395 52 -37 20 -41 26 -44 66 -3 37 -1 43 13 38 8 -4 48 -9
88 -12 40 -3 92 -8 117 -11 118 -15 247 6 317 51 13 9 23 12 23 8 0 -4 7 3 16
15 8 12 19 20 23 18 4 -3 20 6 37 19 40 34 70 32 89 -5z m65 -24 c0 -26 -6
-18 -14 19 -5 22 -4 26 4 15 5 -8 10 -24 10 -34z m583 6 c11 -9 30 -39 43 -65
14 -26 33 -56 42 -65 18 -18 17 -19 -5 -29 -46 -22 -168 64 -178 124 -1 10 3
24 9 32 9 12 8 13 -4 6 -13 -8 -13 -7 -1 9 18 21 64 15 94 -12z m228 -117 c5
4 8 1 7 -6 -2 -9 24 -17 82 -26 134 -21 163 -19 355 31 33 9 73 16 89 16 l30
0 -30 -31 c-88 -93 -270 -118 -436 -60 -80 27 -168 76 -184 102 -3 6 13 1 35
-11 23 -11 46 -18 52 -15z"/>
<path d="M5103 1423 c9 -2 23 -2 30 0 6 3 -1 5 -18 5 -16 0 -22 -2 -12 -5z"/>
<path d="M5158 1393 c7 -3 16 -2 19 1 4 3 -2 6 -13 5 -11 0 -14 -3 -6 -6z"/>
<path d="M4545 761 c25 -12 60 -19 95 -19 l55 0 -75 13 c-41 7 -84 16 -95 19
-11 4 -2 -2 20 -13z"/>
<path d="M905 5291 c-60 -27 -117 -89 -140 -152 -19 -50 -20 -77 -19 -399 1
-190 4 -376 8 -414 l8 -69 23 57 c33 82 73 134 125 167 35 22 40 29 24 29 -12
0 -25 8 -29 18 -13 34 -27 269 -23 407 2 119 6 145 23 175 57 98 199 88 252
-18 16 -33 21 -37 32 -25 20 22 10 122 -14 152 -27 32 -64 66 -76 67 -5 1 -11
3 -14 4 -3 1 -9 3 -14 4 -5 0 -13 4 -17 9 -14 14 -109 7 -149 -12z"/>
<path d="M1543 5060 c0 -25 2 -35 4 -22 2 12 2 32 0 45 -2 12 -4 2 -4 -23z"/>
<path d="M4436 4987 c3 -10 9 -15 12 -12 3 3 0 11 -7 18 -10 9 -11 8 -5 -6z"/>
<path d="M2225 4779 c-4 -13 -7 -39 -6 -57 2 -41 38 -112 57 -112 8 0 14 -4
14 -9 0 -6 27 -22 60 -37 33 -15 60 -31 60 -35 0 -5 6 -9 13 -9 16 -1 70 -48
91 -81 9 -15 19 -40 22 -55 2 -16 9 -40 14 -54 5 -14 11 -43 13 -65 2 -22 9
-53 16 -69 6 -16 9 -36 7 -43 -3 -8 -1 -11 4 -8 6 3 11 -1 11 -9 2 -22 3 -25
25 -76 10 -25 17 -49 16 -53 -1 -5 2 -6 8 -2 9 5 15 -15 11 -38 -1 -5 3 -6 9
-2 9 6 14 -7 11 -27 0 -5 4 -8 9 -8 6 0 10 -4 10 -10 0 -15 120 -180 130 -180
15 0 12 7 -14 33 -13 13 -32 39 -41 58 -10 19 -13 30 -7 24 12 -12 120 -154
124 -164 2 -4 42 -38 89 -77 135 -108 298 -181 504 -225 22 -5 130 -12 240
-15 159 -5 223 -3 313 10 264 39 488 139 653 293 25 24 50 39 54 35 5 -4 5 -1
1 6 -4 7 -1 12 9 12 9 0 14 4 11 9 -3 4 4 17 17 27 21 19 21 19 7 -1 -14 -19
-14 -19 3 -6 9 8 15 16 13 19 -8 7 23 47 37 47 6 0 11 8 9 17 -1 9 3 20 9 24
8 5 9 3 4 -7 -5 -8 -4 -11 1 -6 5 5 10 13 10 18 1 5 2 14 3 20 0 5 5 8 9 5 5
-3 9 0 9 7 1 13 85 163 103 185 6 6 8 12 4 12 -3 0 -2 6 4 13 5 6 29 66 53
131 43 119 67 159 123 206 17 14 68 61 114 105 84 80 124 139 136 205 l7 35
-30 -33 c-17 -18 -31 -30 -31 -28 0 9 -47 -39 -53 -54 -3 -9 -6 -10 -6 -2 -1
7 -15 -1 -32 -18 -17 -16 -34 -29 -38 -28 -20 2 -31 -3 -25 -14 5 -7 3 -8 -5
-4 -7 5 -20 2 -29 -6 -20 -16 -61 -36 -82 -40 -8 -2 -18 -7 -21 -11 -4 -5 -18
-10 -32 -10 -14 -1 -23 -6 -19 -11 3 -5 -2 -7 -10 -3 -9 3 -24 0 -34 -7 -11
-8 -32 -16 -49 -20 -16 -3 -40 -9 -52 -11 -47 -10 -61 -14 -96 -23 -20 -6 -38
-7 -41 -4 -3 3 -6 0 -6 -7 0 -7 -4 -10 -8 -7 -4 3 -26 1 -48 -4 -42 -9 -130
-18 -232 -25 -34 -2 -70 -6 -80 -9 -82 -25 -1104 -25 -1143 0 -6 3 -40 8 -77
10 -37 2 -85 6 -107 9 -22 2 -67 7 -100 9 -173 16 -471 97 -553 153 -15 9 -30
16 -34 15 -12 -3 -108 96 -108 112 0 7 -6 28 -14 46 -13 32 -13 32 -21 9z
m815 -439 c41 -6 129 -15 195 -20 114 -9 152 -11 358 -25 96 -7 483 -6 587 1
36 2 106 6 155 8 50 3 124 9 166 15 42 6 121 13 175 16 55 4 104 8 111 10 17
6 26 -11 18 -34 -9 -28 -65 -51 -194 -77 -270 -55 -476 -74 -802 -74 -329 0
-644 35 -858 97 -55 16 -101 50 -101 77 0 28 21 29 190 6z m-400 -225 c0 -5
-5 -3 -10 5 -5 8 -10 20 -10 25 0 6 5 3 10 -5 5 -8 10 -19 10 -25z m95 -201
c18 -33 21 -41 7 -24 -25 30 -102 184 -102 202 1 7 16 -19 34 -58 18 -39 46
-93 61 -120z m690 -379 c231 -31 600 -41 760 -20 26 4 35 3 25 -3 -26 -16
-242 -42 -370 -46 -190 -6 -580 52 -580 85 0 6 12 8 28 5 15 -3 77 -12 137
-21z"/>
<path d="M1554 4505 c0 -49 1 -71 3 -48 2 23 2 64 0 90 -2 26 -3 8 -3 -42z"/>
<path d="M751 4234 c0 -11 3 -14 6 -6 3 7 2 16 -1 19 -3 4 -6 -2 -5 -13z"/>
<path d="M5879 3738 c-5 -18 -6 -38 -1 -34 7 8 12 36 6 36 -2 0 -4 -1 -5 -2z"/>
<path d="M5740 3210 c-6 -11 -7 -20 -2 -20 6 0 12 9 15 20 3 11 3 20 1 20 -2
0 -8 -9 -14 -20z"/>
<path d="M5587 3023 c-4 -3 -7 -11 -7 -17 0 -6 5 -5 12 2 6 6 9 14 7 17 -3 3
-9 2 -12 -2z"/>
<path d="M1225 1500 c10 -11 20 -20 23 -20 3 0 -3 9 -13 20 -10 11 -20 20 -23
20 -3 0 3 -9 13 -20z"/>
</g>
</svg>
